<?xml version="1.0" encoding="UTF-8"?>
<svg width="330px" height="330px" viewBox="0 0 250 250" version="1.1" xmlns="http://www.w3.org/2000/svg" xmlns:xlink="http://www.w3.org/1999/xlink">
    <g id="220519" stroke="none" stroke-width="1" fill="none" fill-rule="evenodd">
        <g id="03_互動QR-Code-Spec-Copy" transform="translate(-91.000000, -80.000000)" fill="#000000" fill-rule="nonzero">
            <g id="Group" transform="translate(42.996370, 30.574218)">
                <path d="M116.564832,281.695248 C117.239487,280.334534 118.88948,279.778374 120.250194,280.453029 C136.506558,288.513089 154.448744,292.764241 173.00363,292.764241 C190.221607,292.764241 206.91772,289.104402 222.242156,282.124349 C223.624315,281.494795 225.255131,282.104903 225.884684,283.487063 C226.514237,284.869222 225.904129,286.500037 224.52197,287.129591 C208.485245,294.434082 191.012132,298.264241 173.00363,298.264241 C153.596377,298.264241 134.818636,293.815116 117.807052,285.38061 C116.446338,284.705955 115.890177,283.055962 116.564832,281.695248 Z M281.457724,118.57447 C282.825677,117.914617 284.469539,118.488646 285.129392,119.856599 C293.182804,136.552268 297.42238,154.900135 297.42238,173.845491 C297.42238,192.536198 293.296156,210.646672 285.449518,227.165617 C284.797865,228.537495 283.157468,229.121353 281.78559,228.469699 C280.413712,227.818045 279.829855,226.177649 280.481508,224.80577 C287.979704,209.020375 291.92238,191.715514 291.92238,173.845491 C291.92238,155.732078 287.871416,138.200479 280.175596,122.246138 C279.515743,120.878185 280.089771,119.234323 281.457724,118.57447 Z M173.00363,49.4267407 C190.954109,49.4267407 208.372921,53.23223 224.368052,60.4914104 C225.75107,61.119075 226.363405,62.7490554 225.73574,64.1320735 C225.108076,65.5150916 223.478095,66.1274266 222.095077,65.499762 C206.8104,58.5630115 190.166149,54.9267407 173.00363,54.9267407 C154.144858,54.9267407 135.920563,59.3185133 119.459664,67.6335868 C118.104022,68.3183769 116.449925,67.7745441 115.765135,66.4189024 C115.080345,65.0632607 115.624178,63.4091638 116.97982,62.7243738 C134.205335,54.0230614 153.278432,49.4267407 173.00363,49.4267407 Z M60.7325641,120.158875 C61.3887114,118.78914 63.0310131,118.210664 64.4007477,118.866811 C65.7704822,119.522958 66.348959,121.16526 65.6928117,122.534995 C58.0866741,138.413121 54.08488,155.842182 54.08488,173.845491 C54.08488,191.608853 57.9805652,208.814266 65.3928756,224.525087 C66.0409274,225.89867 65.452768,227.537529 64.0791847,228.185581 C62.7056015,228.833632 61.0667425,228.245473 60.4186907,226.87189 C52.6619157,210.430957 48.58488,192.424603 48.58488,173.845491 C48.58488,155.015332 52.7729867,136.774821 60.7325641,120.158875 Z" id="border-color"></path>
            </g>
        </g>
    </g>
</svg>